<?xml version="1.0" standalone="no"?>
<!DOCTYPE svg PUBLIC "-//W3C//DTD SVG 1.1//EN" "http://www.w3.org/Graphics/SVG/1.1/DTD/svg11.dtd">
<svg xmlns="http://www.w3.org/2000/svg" xmlns:xlink="http://www.w3.org/1999/xlink" id="Layer_2" data-name="Layer 2" viewBox="0 0 2119.46 1370.7" width="2119.4599609375" height="1370.699951171875">
  <defs>
    <style>
      .cls-1 {
        stroke-width: 9.73px;
      }

      .cls-1, .cls-2, .cls-3, .cls-4 {
        fill: none;
      }

      .cls-1, .cls-2, .cls-4 {
        stroke: #a60056;
        stroke-miterlimit: 10;
      }

      .cls-2 {
        stroke-width: 14.62px;
      }

      .cls-3, .cls-5 {
        stroke-width: 0px;
      }

      .cls-6 {
        clip-path: url(#clippath);
      }

      .cls-5 {
        fill: #404041;
      }

      .cls-4 {
        stroke-width: 25.95px;
      }
    </style>
    <clipPath id="clippath">
      <path class="cls-3" d="M843.74,426.31c3.95,4.88,106.69,97.93,106.69,97.93l78.08,123.49,33.89,169.75-20.29,183.68,295.27,80.32,638.34-249.74,143.74-142.95L1874.15,0l-349.72,63.12-680.7,363.19Z"/>
    </clipPath>
  </defs>
  <g id="Layer_1-2" data-name="Layer 1">
    <g>
      <g>
        <path class="cls-5" d="M209.33,853.52l-126.19-28.8,12.23-53.63c3.08-13.49,6.45-23.02,10.11-28.62,3.66-5.59,8.81-9.57,15.45-11.92,6.63-2.35,13.67-2.67,21.14-.97,9.47,2.16,16.65,6.73,21.55,13.69,4.9,6.98,6.89,16.19,5.97,27.63,4.47-4.78,9.04-8.52,13.7-11.23,4.68-2.71,12.6-5.99,23.8-9.83l28.13-9.79-6.96,30.47-31.66,12.16c-11.31,4.3-18.5,7.37-21.62,9.2-3.09,1.82-5.43,3.98-7,6.46-1.56,2.48-3.01,6.65-4.35,12.5l-1.18,5.17,52.69,12.02-5.82,25.48ZM142.32,811.42l4.3-18.85c2.79-12.23,4.02-19.97,3.68-23.25-.34-3.28-1.57-6.07-3.71-8.36-2.13-2.3-5.08-3.88-8.87-4.74-4.25-.97-7.94-.62-11.06,1.05-3.13,1.67-5.51,4.5-7.15,8.47-.76,2-2.32,8.17-4.67,18.5l-4.53,19.89,32.01,7.3Z"/>
        <path class="cls-5" d="M242,674.49l15.86-19.41c6.3,7.25,9.8,15.04,10.51,23.34.72,8.3-1.48,16.93-6.59,25.88-8.08,14.16-18.69,22-31.83,23.51-10.48,1.14-21.36-1.52-32.66-7.97-13.49-7.71-22.04-17.27-25.66-28.68-3.61-11.41-2.34-22.51,3.82-33.3,6.91-12.12,16.37-19.39,28.37-21.83,12.01-2.43,26.17,1.22,42.51,10.95l-30.82,53.98c6.48,3.5,12.44,4.59,17.89,3.3,5.45-1.3,9.59-4.42,12.42-9.38,1.93-3.37,2.63-6.73,2.1-10.09-.53-3.35-2.5-6.78-5.92-10.29ZM220.93,660.83c-6.33-3.41-11.99-4.51-16.98-3.29-4.99,1.21-8.75,4.02-11.27,8.41-2.68,4.71-3.18,9.56-1.51,14.59,1.67,5.02,5.47,9.19,11.38,12.49l18.39-32.2Z"/>
        <path class="cls-5" d="M249.24,562.36l14.84,13.07-11.2,12.72,28.37,24.98c5.74,5.05,9.2,7.88,10.36,8.47,1.16.6,2.43.73,3.81.42,1.38-.32,2.61-1.1,3.7-2.33,1.51-1.72,3.11-4.74,4.8-9.07l15.85,11.13c-1.96,5.97-5.35,11.69-10.17,17.16-2.96,3.36-6.19,5.89-9.68,7.6-3.5,1.7-6.7,2.39-9.6,2.08-2.9-.32-6.09-1.57-9.57-3.77-2.51-1.51-7.06-5.16-13.64-10.95l-30.68-27.01-7.52,8.55-14.85-13.07,7.53-8.55-13.98-12.31,5.59-28.26,24.85,21.88,11.21-12.72Z"/>
        <path class="cls-5" d="M260.23,535.07l-14.92-17.45,18.86-16.12,14.92,17.45-18.86,16.12ZM329.42,616.01l-60.93-71.27,18.87-16.12,60.92,71.27-18.86,16.12Z"/>
        <path class="cls-5" d="M384.63,574.77l-21.13,13.01-49.14-79.85,19.63-12.08,6.99,11.36c.06-7.43.91-12.83,2.53-16.18,1.64-3.35,4.16-6.07,7.57-8.18,4.81-2.96,10.27-4.48,16.36-4.57l4.79,22.45c-4.97-.11-8.99.77-12.06,2.65-2.96,1.82-4.96,4.18-6.01,7.07-1.05,2.9-.86,6.84.59,11.82,1.44,4.99,6.34,14.27,14.7,27.86l15.18,24.66Z"/>
        <path class="cls-5" d="M460.84,508.43l24.74-4.02c-.1,9.61-2.63,17.76-7.6,24.45-4.97,6.69-12.34,11.7-22.08,15.01-15.44,5.25-28.58,4.09-39.42-3.48-8.6-6.1-14.98-15.3-19.17-27.62-5-14.71-5.07-27.54-.21-38.49,4.86-10.94,13.17-18.42,24.93-22.41,13.2-4.48,25.11-3.66,35.71,2.46,10.6,6.13,18.79,18.25,24.58,36.37l-58.85,20c2.53,6.91,6.27,11.68,11.21,14.32,4.94,2.65,10.11,3.04,15.51,1.21,3.68-1.25,6.43-3.31,8.26-6.16,1.82-2.86,2.63-6.74,2.39-11.64ZM454.11,484.23c-2.47-6.74-5.99-11.32-10.53-13.72-4.54-2.4-9.22-2.79-14.01-1.16-5.13,1.74-8.73,5.05-10.8,9.92-2.08,4.87-2,10.5.23,16.89l35.11-11.93Z"/>
        <path class="cls-5" d="M504.91,428.58l22.86.58-.32,12.8c8.43-9.74,18.3-14.47,29.59-14.18,6.01.15,11.18,1.51,15.53,4.1,4.36,2.58,7.88,6.41,10.58,11.48,4.24-4.9,8.78-8.52,13.61-10.88,4.82-2.35,9.95-3.46,15.36-3.32,6.89.17,12.67,1.71,17.37,4.63,4.7,2.91,8.15,7.1,10.37,12.58,1.6,4.05,2.29,10.54,2.07,19.48l-1.51,59.93-24.79-.62,1.34-53.58c.23-9.3-.47-15.32-2.11-18.07-2.2-3.59-5.69-5.45-10.46-5.56-3.48-.09-6.76.89-9.87,2.93-3.11,2.05-5.4,5.09-6.86,9.15-1.46,4.06-2.3,10.5-2.52,19.32l-1.14,45.02-24.8-.63,1.29-51.37c.23-9.12-.06-15.02-.88-17.69-.81-2.67-2.13-4.67-3.95-6.01-1.82-1.34-4.32-2.06-7.5-2.13-3.83-.1-7.29.84-10.4,2.82-3.11,1.99-5.38,4.9-6.8,8.75-1.42,3.85-2.24,10.28-2.47,19.28l-1.14,45.55-24.8-.62,2.35-93.74Z"/>
        <path class="cls-5" d="M714.86,527.68l21.21,13.36c-6.43,7.14-13.72,11.57-21.87,13.3-8.15,1.74-16.98.61-26.49-3.35-15.05-6.28-24.13-15.85-27.24-28.7-2.42-10.26-1.12-21.39,3.89-33.39,5.99-14.34,14.43-24.01,25.3-29,10.89-4.99,22.07-5.09,33.52-.3,12.89,5.38,21.26,13.86,25.15,25.47,3.89,11.61,2.02,26.12-5.63,43.53l-57.36-23.95c-2.68,6.86-3.04,12.91-1.07,18.16,1.94,5.25,5.56,8.97,10.83,11.17,3.58,1.5,7.01,1.78,10.27.84,3.26-.93,6.43-3.31,9.49-7.14ZM725.83,505.09c2.6-6.7,2.99-12.44,1.17-17.26-1.81-4.81-5.07-8.19-9.74-10.14-4.99-2.09-9.88-1.99-14.66.28-4.78,2.28-8.44,6.56-11,12.82l34.23,14.29Z"/>
        <path class="cls-5" d="M802.76,626.1l-19.04-15.91,30.69-36.72c6.49-7.77,10.28-13.13,11.38-16.09,1.09-2.96,1.26-5.84.48-8.63-.78-2.79-2.45-5.27-5.02-7.41-3.3-2.76-7.01-4.33-11.15-4.71-4.13-.38-7.92.52-11.38,2.69-3.46,2.17-8.55,7.27-15.27,15.31l-27.23,32.59-19.04-15.91,60.12-71.95,17.69,14.77-8.83,10.57c13.07-2.88,24.37-.34,33.9,7.62,4.2,3.51,7.4,7.47,9.62,11.9,2.21,4.42,3.23,8.55,3.05,12.39-.18,3.84-1.16,7.54-2.95,11.11-1.8,3.56-5.01,8.13-9.65,13.68l-37.37,44.71Z"/>
        <path class="cls-5" d="M913.57,620.41l-15.96,11.69-10.01-13.68-30.49,22.33c-6.17,4.53-9.67,7.29-10.5,8.3-.83,1.01-1.24,2.22-1.22,3.64.01,1.41.51,2.78,1.49,4.11,1.35,1.85,3.95,4.06,7.81,6.64l-14.28,13.08c-5.4-3.2-10.25-7.74-14.57-13.63-2.65-3.61-4.42-7.31-5.33-11.09-.91-3.79-.9-7.06.04-9.82.93-2.76,2.84-5.61,5.74-8.53,2.01-2.14,6.56-5.78,13.63-10.97l32.99-24.15-6.73-9.19,15.95-11.69,6.73,9.19,15.03-11,26.4,11.53-26.72,19.56,10.02,13.68Z"/>
        <path class="cls-5" d="M843.63,687.07l22.04-11.4,11.4,22.03-22.04,11.4-11.4-22.04Z"/>
      </g>
      <g>
        <path class="cls-5" d="M209.67,1133.04l86.51-90.97,29.48,28.03c11.17,10.62,18.01,18,20.54,22.14,3.91,6.32,5.45,13.44,4.62,21.35-.83,7.91-4.69,15.49-11.58,22.73-5.31,5.59-10.79,9.31-16.43,11.19-5.65,1.88-11.07,2.42-16.26,1.62-5.19-.8-9.73-2.38-13.62-4.74-5.21-3.31-11.97-8.91-20.29-16.82l-11.97-11.39-32.63,34.31-18.38-17.46ZM299.91,1074.93l-24.54,25.81,10.05,9.56c7.24,6.88,12.54,11.01,15.88,12.38,3.34,1.37,6.67,1.7,9.99.99,3.31-.71,6.25-2.41,8.8-5.1,3.15-3.31,4.78-6.96,4.88-10.96.1-4-1.08-7.69-3.55-11.06-1.79-2.5-6-6.9-12.63-13.19l-8.87-8.44Z"/>
        <path class="cls-5" d="M313.92,1219.21l62.09-109.09,20.92,11.9-62.11,109.09-20.91-11.9Z"/>
        <path class="cls-5" d="M408.01,1195.28l-19.8-10.02c4.86-7.72,10.78-12.75,17.72-15.09,6.96-2.33,16.09-1.81,27.42,1.57,10.28,3.07,17.57,6.57,21.88,10.5,4.3,3.94,6.93,8.09,7.85,12.45.93,4.36-.1,11.54-3.08,21.56l-8.27,26.84c-2.29,7.66-3.6,13.42-3.95,17.27-.35,3.86-.13,8.17.65,12.93l-22.82-6.81c-.14-1.71-.2-4.2-.18-7.47.02-1.48.02-2.46-.02-2.95-5.08,2.65-10.15,4.27-15.2,4.84-5.06.57-10.13.11-15.22-1.41-8.97-2.68-15.32-7.22-19.03-13.64-3.72-6.41-4.46-13.33-2.25-20.77,1.47-4.92,3.95-8.97,7.45-12.12,3.5-3.16,7.68-5.13,12.54-5.91,4.85-.78,11.49-.75,19.94.1,11.38,1.2,19.41,1.54,24.09,1.03l.69-2.3c1.32-4.43,1.17-7.92-.45-10.46-1.63-2.54-5.48-4.72-11.55-6.53-4.11-1.22-7.54-1.37-10.32-.45-2.78.93-5.49,3.21-8.11,6.83ZM433.27,1223.2c-3.24.1-8.27-.12-15.08-.66-6.8-.54-11.4-.45-13.75.27-3.64,1.24-5.96,3.5-6.93,6.78-.97,3.23-.6,6.38,1.11,9.44,1.71,3.08,4.42,5.17,8.13,6.28,4.16,1.24,8.53,1.06,13.13-.55,3.41-1.25,6-3.24,7.77-5.99,1.19-1.79,2.61-5.45,4.26-10.97l1.36-4.59Z"/>
        <path class="cls-5" d="M571.42,1279.77l-24.05-.05.08-46.41c.02-9.82-.48-16.17-1.5-19.05-1.03-2.88-2.69-5.12-4.99-6.73-2.31-1.6-5.09-2.41-8.35-2.41-4.17,0-7.91,1.13-11.23,3.4-3.31,2.28-5.58,5.3-6.83,9.06-1.23,3.77-1.87,10.73-1.88,20.89l-.08,41.19-24.07-.05.19-90.93,22.35.05-.02,13.35c7.95-10.26,17.95-15.38,29.99-15.35,5.31,0,10.16.97,14.55,2.9,4.4,1.92,7.71,4.36,9.97,7.34,2.24,2.98,3.81,6.35,4.69,10.11.87,3.77,1.31,9.17,1.29,16.19l-.11,56.52Z"/>
        <path class="cls-5" d="M698.23,1247.3l-22.95,7.23-13.96-44.26c-2.95-9.36-5.35-15.27-7.2-17.71-1.84-2.44-4.11-4.07-6.79-4.9-2.68-.83-5.58-.76-8.68.22-3.98,1.26-7.2,3.47-9.68,6.64-2.46,3.17-3.73,6.74-3.76,10.7-.04,3.96,1.47,10.79,4.53,20.48l12.38,39.28-22.95,7.24-27.35-86.74,21.32-6.71,4.02,12.74c4.48-12.18,12.46-20.09,23.95-23.71,5.06-1.59,9.98-2.14,14.75-1.64,4.76.5,8.67,1.83,11.7,3.98,3.05,2.15,5.56,4.89,7.53,8.22,1.98,3.33,4.03,8.34,6.13,15.04l17,53.9Z"/>
        <path class="cls-5" d="M767.5,1173.54l22.23-9.84c2.26,9.04,1.88,17.3-1.14,24.8-3.02,7.5-8.7,14-17.04,19.5-13.2,8.71-25.82,10.84-37.84,6.38-9.56-3.61-17.82-10.68-24.77-21.21-8.29-12.58-11.5-24.6-9.62-36.07,1.88-11.46,7.85-20.5,17.91-27.13,11.29-7.45,22.67-9.6,34.11-6.44,11.45,3.15,22.1,12.52,31.96,28.1l-50.32,33.18c4.07,5.87,8.75,9.43,14.03,10.7,5.28,1.27,10.24.38,14.85-2.67,3.15-2.07,5.23-4.67,6.24-7.81,1.01-3.13.81-6.96-.61-11.5ZM755.26,1152.49c-3.98-5.72-8.39-9.15-13.24-10.29-4.86-1.14-9.34-.36-13.43,2.34-4.39,2.89-6.97,6.88-7.71,11.96-.75,5.08.7,10.34,4.37,15.79l30.02-19.8Z"/>
        <path class="cls-5" d="M890.01,1094.33l-14.74,16.8-10.05-8.81c1.46,6.22,1.48,12.07.06,17.54-1.43,5.47-3.83,10.14-7.22,14-6.89,7.85-15.95,11.81-27.2,11.85-11.24.05-22.54-4.9-33.86-14.84-11.57-10.16-18-20.62-19.24-31.36-1.25-10.74,1.78-20.27,9.08-28.6,6.69-7.64,15.66-11.46,26.91-11.47l-33.99-29.82,15.87-18.08,94.37,82.78ZM812,1111.32c7.29,6.4,13.45,10.02,18.48,10.86,7.29,1.23,13.22-.78,17.81-6.02,3.65-4.16,4.98-9.26,4-15.28-.97-6.02-4.99-12.12-12.02-18.3-7.86-6.89-14.76-10.44-20.69-10.63-5.93-.2-10.85,1.91-14.72,6.33-3.76,4.29-5.21,9.38-4.35,15.27.88,5.89,4.7,11.81,11.48,17.76Z"/>
        <path class="cls-5" d="M910.24,1060.7l-20.88-11.95,11.95-20.88,20.88,11.95-11.95,20.88Z"/>
      </g>
      <circle class="cls-1" cx="539.92" cy="833.24" r="254.76"/>
      <g class="cls-6">
        <g>
          <path class="cls-2" d="M920.24,598.1c153.59-57.54,194.54,51.78,348.14-5.76,153.6-57.54,112.65-166.85,266.24-224.39,153.6-57.54,194.55,51.78,348.14-5.76"/>
          <path class="cls-2" d="M962.54,711c153.59-57.54,194.54,51.78,348.14-5.76,153.6-57.54,112.65-166.85,266.24-224.39,153.6-57.54,194.55,51.78,348.14-5.76"/>
          <path class="cls-2" d="M1004.83,823.9c153.59-57.54,194.54,51.78,348.14-5.76,153.6-57.54,112.65-166.85,266.24-224.39,153.6-57.54,194.55,51.78,348.14-5.76"/>
          <path class="cls-2" d="M1047.17,936.93c153.59-57.54,194.54,51.78,348.14-5.76,153.6-57.54,112.65-166.85,266.24-224.39,153.6-57.54,194.55,51.78,348.14-5.76"/>
          <path class="cls-2" d="M881.89,495.72c153.59-57.54,194.54,51.78,348.14-5.76,153.6-57.54,112.65-166.85,266.24-224.39,153.6-57.54,194.55,51.78,348.14-5.76"/>
        </g>
      </g>
      <ellipse class="cls-4" cx="536.16" cy="846.98" rx="525.04" ry="508.55" transform="translate(-263.05 241.91) rotate(-20.54)"/>
    </g>
  </g>
</svg>